<?xml version="1.0" encoding="UTF-8"?><svg xmlns="http://www.w3.org/2000/svg" width="300" height="300" viewBox="0 0 300 300"><defs><style>.c{opacity:.1;}.d{opacity:.5;}.e,.f,.g,.h,.i,.j,.k,.l,.m,.n,.o,.p,.q,.r{stroke-width:0px;}.f{fill:#f9b54c;}.g{fill:#f9533d;}.h{fill:#54c0eb;}.i{fill:#2cc4a7;}.j{fill:#adb3ba;}.k{fill:#324a5e;}.l{fill:#7fa3a9;}.m{fill:#ff7058;}.n{fill:#fff;}.o{fill:#e7eaef;}.p{fill:#f6d254;}.q{fill:#004754;}.r{fill:#00242e;}</style></defs><g id="a"><circle class="p" cx="150" cy="150" r="125"/></g><g id="b"><path class="q" d="m280.59,62.99v134.77H24.9V62.99c0-5.95,4.87-10.81,10.81-10.81h234.07c5.98,0,10.81,4.87,10.81,10.81Z"/><rect class="p" x="35.71" y="62.99" width="234.07" height="123.96"/><path class="r" d="m280.59,197.75v17.23c0,5.98-4.83,10.81-10.81,10.81H35.7c-5.95,0-10.81-4.83-10.81-10.81v-17.23h255.7Z"/><path class="q" d="m161.57,211.77c0,4.87-3.96,8.83-8.83,8.83s-8.83-3.96-8.83-8.83,3.97-8.83,8.83-8.83,8.83,3.96,8.83,8.83Z"/><path class="q" d="m213.73,258.16c0,3.21-2.63,5.84-5.84,5.84h-110.3c-3.21,0-5.84-2.63-5.84-5.84s2.63-5.8,5.84-5.8h110.3c3.21,0,5.84,2.6,5.84,5.8Z"/><polygon class="l" points="194.79 252.35 110.68 252.35 122.37 225.79 183.1 225.79 194.79 252.35"/><g class="d"><polygon class="r" points="194.8 252.36 122.39 225.79 183.09 225.79 194.8 252.36"/></g><g class="c"><polygon class="e" points="233.7 62.99 227.39 186.95 78.1 186.95 71.8 62.99 233.7 62.99"/></g><path class="o" d="m227.39,31.02v155.93H78.1V31.02c0-3.32,2.7-6.02,6.02-6.02h137.25c3.32,0,6.02,2.7,6.02,6.02Z"/><path class="m" d="m227.39,47.19v-16.17c0-3.32-2.7-6.02-6.02-6.02H84.12c-3.32,0-6.02,2.7-6.02,6.02v16.17h149.29Z"/><path class="n" d="m94.51,36.1c0,2.24-1.81,4.06-4.06,4.06s-4.05-1.81-4.05-4.06,1.81-4.06,4.05-4.06,4.06,1.81,4.06,4.06Z"/><path class="n" d="m106.42,36.1c0,2.24-1.81,4.06-4.06,4.06s-4.05-1.81-4.05-4.06,1.81-4.06,4.05-4.06,4.06,1.81,4.06,4.06Z"/><path class="n" d="m118.32,36.1c0,2.24-1.81,4.06-4.06,4.06s-4.05-1.81-4.05-4.06,1.81-4.06,4.05-4.06,4.06,1.81,4.06,4.06Z"/><path class="n" d="m219.09,36.1c0,1.87-1.51,3.42-3.39,3.42h-87.25c-1.87,0-3.42-1.55-3.42-3.42s1.55-3.42,3.42-3.42h87.25c1.87,0,3.39,1.55,3.39,3.42Z"/><rect class="f" x="87.12" y="67.21" width="30.64" height="4.51"/><rect class="i" x="122.18" y="67.21" width="26.03" height="4.51"/><rect class="k" x="152.58" y="67.21" width="65.79" height="4.51"/><rect class="g" x="87.12" y="86.77" width="43.23" height="4.51"/><rect class="h" x="134.77" y="86.77" width="26.03" height="4.51"/><rect class="j" x="165.17" y="86.77" width="53.2" height="4.51"/><rect class="k" x="87.12" y="106.33" width="21.59" height="4.51"/><rect class="g" x="113.13" y="106.33" width="47.67" height="4.51"/><rect class="f" x="165.17" y="106.33" width="53.2" height="4.51"/><rect class="f" x="87.12" y="125.88" width="30.64" height="4.51"/><rect class="g" x="122.18" y="125.88" width="26.03" height="4.51"/><rect class="h" x="152.58" y="125.88" width="65.79" height="4.51"/><rect class="g" x="87.12" y="145.44" width="43.23" height="4.51"/><rect class="h" x="134.77" y="145.44" width="26.03" height="4.51"/><rect class="j" x="165.17" y="145.44" width="53.2" height="4.51"/><rect class="k" x="87.12" y="165" width="21.59" height="4.51"/><rect class="g" x="113.13" y="165" width="47.67" height="4.51"/><rect class="f" x="165.17" y="165" width="53.2" height="4.51"/></g></svg>